<?xml version="1.0" encoding="UTF-8"?>
<svg xmlns="http://www.w3.org/2000/svg" width="1024" height="1024" viewBox="0 0 1024 1024">
  <defs>
    <linearGradient id="bg" x1="0" y1="0" x2="1" y2="1">
      <stop offset="0" stop-color="#5B9BFF" />
      <stop offset="1" stop-color="#2A2F88" />
    </linearGradient>
    <linearGradient id="sheet" x1="0" y1="0" x2="1" y2="1">
      <stop offset="0" stop-color="#FFFFFF" stop-opacity="0.95" />
      <stop offset="1" stop-color="#DDE3FF" stop-opacity="0.95" />
    </linearGradient>
    <filter id="s" x="-20%" y="-20%" width="140%" height="140%" color-interpolation-filters="sRGB">
      <feDropShadow dx="0" dy="12" stdDeviation="24" flood-color="#0B102A" flood-opacity="0.35" />
    </filter>
  </defs>

  <!-- Transparent background (no base shape) -->

  <!-- Clock (time tracking) -->
  <g transform="translate(512, 470)">
    <!-- clock face ring -->
    <circle r="220" fill="none" stroke="#EAF0FF" stroke-opacity="0.85" stroke-width="18" />
    <!-- hour markers (12,3,6,9) -->
    <circle cx="0" cy="-200" r="8" fill="#EAF0FF"/>
    <circle cx="200" cy="0" r="8" fill="#EAF0FF"/>
    <circle cx="0" cy="200" r="8" fill="#EAF0FF"/>
    <circle cx="-200" cy="0" r="8" fill="#EAF0FF"/>
    <!-- hands at 10:10 for balance -->
    <line x1="0" y1="0" x2="-80" y2="-120" stroke="#FFFFFF" stroke-width="22" stroke-linecap="round"/>
    <line x1="0" y1="0" x2="140" y2="0" stroke="#FFFFFF" stroke-width="16" stroke-linecap="round"/>
    <circle r="14" fill="#FFFFFF"/>
  </g>

  <!-- Invoice sheet (billing) with folded corner -->
  <g transform="translate(580, 560)" filter="url(#s)">
    <!-- sheet -->
    <path d="M0 0 h210 a30 30 0 0 1 30 30 v160 a30 30 0 0 1 -30 30 h-210 a30 30 0 0 1 -30 -30 v-160 a30 30 0 0 1 30 -30 z" fill="url(#sheet)"/>
    <!-- fold -->
    <path d="M240 60 v-30 a30 30 0 0 0 -30 -30 h-30 z" fill="#C9D5FF"/>
    <!-- lines -->
    <rect x="30" y="50" width="150" height="14" rx="7" fill="#9AA9FF" opacity="0.9"/>
    <rect x="30" y="88" width="120" height="12" rx="6" fill="#9AA9FF" opacity="0.8"/>
    <rect x="30" y="124" width="120" height="12" rx="6" fill="#9AA9FF" opacity="0.75"/>
    <!-- amount badge -->
    <rect x="170" y="120" width="50" height="34" rx="8" fill="#5668FF"/>
    <circle cx="195" cy="137" r="4" fill="#FFFFFF" opacity="0.95"/>
  </g>

  <!-- Subtle monogram hint (M·H) integrated into background -->
  <g opacity="0.14" fill="#FFFFFF">
    <path d="M230 730 v-280 h36 l96 120 l96 -120 h36 v280 h-40 v-198 l-92 114 h-4 l-92 -114 v198z"/>
    <rect x="620" y="450" width="40" height="280" rx="8"/>
  </g>

  <!-- No global highlight to keep full transparency -->
</svg>
