<?xml version="1.0" encoding="UTF-8"?>
<svg width="1024" height="1024" viewBox="0 0 1024 1024" fill="none" xmlns="http://www.w3.org/2000/svg" role="img" aria-label="myHours app icon">
  <defs>
    <!-- Darker aurora gradient -->
    <linearGradient id="grad-bg" x1="256" y1="128" x2="832" y2="896" gradientUnits="userSpaceOnUse">
      <stop offset="0" stop-color="#536BCE"/>
      <stop offset="0.35" stop-color="#3D3FAF"/>
      <stop offset="0.7" stop-color="#4A278E"/>
      <stop offset="1" stop-color="#1FA58A"/>
    </linearGradient>

    <!-- Deeper vignette -->
    <radialGradient id="grad-vignette" cx="0" cy="0" r="1" gradientUnits="userSpaceOnUse" gradientTransform="translate(512 640) rotate(90) scale(520)">
      <stop offset="0.55" stop-color="#00000000"/>
      <stop offset="1" stop-color="#00000055"/>
    </radialGradient>

    <!-- Stronger top sheen -->
    <linearGradient id="grad-sheen" x1="256" y1="160" x2="768" y2="512" gradientUnits="userSpaceOnUse">
      <stop offset="0" stop-color="#FFFFFF70"/>
      <stop offset="1" stop-color="#FFFFFF00"/>
    </linearGradient>

    <!-- Darker stroke gradient for glyphs -->
    <linearGradient id="grad-glyph" x1="352" y1="304" x2="704" y2="736" gradientUnits="userSpaceOnUse">
      <stop offset="0" stop-color="#F5F9FF"/>
      <stop offset="1" stop-color="#D0DBF5"/>
    </linearGradient>

    <filter id="f-drop" x="-20%" y="-20%" width="140%" height="140%" color-interpolation-filters="sRGB">
      <feOffset dy="8" in="SourceAlpha" result="o"/>
      <feGaussianBlur stdDeviation="12" in="o" result="b"/>
      <feColorMatrix type="matrix" values="0 0 0 0 0   0 0 0 0 0   0 0 0 0 0   0 0 0 0.45 0" in="b" result="s"/>
      <feMerge>
        <feMergeNode in="s"/>
        <feMergeNode in="SourceGraphic"/>
      </feMerge>
    </filter>

    <filter id="f-inner" x="-20%" y="-20%" width="140%" height="140%" color-interpolation-filters="sRGB">
      <feOffset dy="6" in="SourceAlpha" result="io"/>
      <feGaussianBlur in="io" stdDeviation="10" result="ib"/>
      <feComposite in="ib" in2="SourceAlpha" operator="arithmetic" k2="-1" k3="1" result="icut"/>
      <feColorMatrix in="icut" type="matrix" values="0 0 0 0 0   0 0 0 0 0   0 0 0 0 0   0 0 0 0.5 0" result="ishadow"/>
      <feComposite in="ishadow" in2="SourceGraphic" operator="over"/>
    </filter>

    <clipPath id="clip-squircle">
      <rect x="64" y="64" width="896" height="896" rx="212" ry="212"/>
    </clipPath>
  </defs>

  <!-- Dark squircle -->
  <g clip-path="url(#clip-squircle)" filter="url(#f-inner)">
    <rect x="64" y="64" width="896" height="896" rx="212" ry="212" fill="url(#grad-bg)"/>
    <g opacity="0.25">
      <ellipse cx="780" cy="300" rx="220" ry="180" fill="#FFFFFF" opacity="0.12"/>
      <ellipse cx="320" cy="760" rx="260" ry="210" fill="#64D9C9" opacity="0.12"/>
      <ellipse cx="280" cy="280" rx="210" ry="170" fill="#9EA0E8" opacity="0.12"/>
    </g>
    <rect x="64" y="64" width="896" height="896" rx="212" ry="212" fill="url(#grad-vignette)"/>
    <path d="M64,240 C64,154 134,84 220,84 H804 c86,0 156,70 156,156 v60 c-220,120 -480,170 -896,0 Z" fill="url(#grad-sheen)" opacity="0.45"/>
    <rect x="64.5" y="64.5" width="895" height="895" rx="212" ry="212" stroke="#FFFFFF" stroke-opacity="0.18"/>
  </g>

  <!-- Clock + check -->
  <g filter="url(#f-drop)">
    <rect x="238" y="238" width="548" height="548" rx="140" fill="#FFFFFF" opacity="0.08"/>
    <rect x="238" y="238" width="548" height="548" rx="140" stroke="#FFFFFF" stroke-opacity="0.15"/>

    <circle cx="512" cy="512" r="190" fill="none" stroke="url(#grad-glyph)" stroke-width="28"/>

    <g stroke="url(#grad-glyph)" stroke-linecap="round" stroke-width="22">
      <line x1="512" y1="302" x2="512" y2="340"/>
      <line x1="722" y1="512" x2="684" y2="512"/>
      <line x1="512" y1="684" x2="512" y2="646"/>
      <line x1="340" y1="512" x2="378" y2="512"/>
    </g>

    <g stroke="url(#grad-glyph)" stroke-linecap="round">
      <line x1="512" y1="512" x2="442" y2="412" stroke-width="26"/>
      <line x1="512" y1="512" x2="620" y2="512" stroke-width="18"/>
      <circle cx="512" cy="512" r="14" fill="#FFFFFF"/>
    </g>

    <path d="M760 612c0-20-16-36-36-36h-92c-20 0-36 16-36 36v92c0 20 16 36 36 36h92c20 0 36-16 36-36v-92Z" fill="#FFFFFF" opacity="0.12"/>
    <path d="M704 708l-28-28m-20 20 20-20m0 0 28 28 48-48" stroke="url(#grad-glyph)" stroke-width="16" stroke-linecap="round" stroke-linejoin="round"/>
  </g>
</svg>
